<svg xmlns="http://www.w3.org/2000/svg" version="1.1" xmlns:xlink="http://www.w3.org/1999/xlink" xmlns:svgjs="http://svgjs.com/svgjs" width="512" height="512" x="0" y="0" viewBox="0 0 24 24" style="enable-background:new 0 0 512 512" xml:space="preserve"><g><path d="M3 21.976a1 1 0 0 1-1-1V0H0v20.976a3 3 0 0 0 3 3h21v-2Z" fill="#a1a1a1" data-original="#000000"></path><path d="M5 12h2v7H5zM10 10h2v9h-2zM15 13h2v6h-2zM20 9h2v10h-2zM11 4.414l5 5 7.707-7.707L22.293.293 16 6.586l-5-5-5.707 5.707 1.414 1.414L11 4.414z" fill="#a1a1a1" data-original="#000000"></path></g></svg>